<svg xmlns="http://www.w3.org/2000/svg" viewBox="4 12 320 70" width="320" height="70">
  <g fill="#7ee787">
    <path d="M22.24 17.60L14.56 17.60L14.56 16.40L22.24 16.40L22.24 17.60ZM31.84 17.60L24.16 17.60L24.16 16.40L31.84 16.40L31.84 17.60ZM41.44 17.60L33.76 17.60L33.76 16.40L41.44 16.40L41.44 17.60ZM60.64 17.60L52.96 17.60L52.96 16.40L60.64 16.40L60.64 17.60ZM70.24 17.60L62.56 17.60L62.56 16.40L70.24 16.40L70.24 17.60ZM79.84 17.60L72.16 17.60L72.16 16.40L79.84 16.40L79.84 17.60ZM118.24 17.60L110.56 17.60L110.56 16.40L118.24 16.40L118.24 17.60ZM147.04 17.60L139.36 17.60L139.36 16.40L147.04 16.40L147.04 17.60ZM156.64 17.60L148.96 17.60L148.96 16.40L156.64 16.40L156.64 17.60ZM166.24 17.60L158.56 17.60L158.56 16.40L166.24 16.40L166.24 17.60ZM195.04 17.60L187.36 17.60L187.36 16.40L195.04 16.40L195.04 17.60ZM204.64 17.60L196.96 17.60L196.96 16.40L204.64 16.40L204.64 17.60ZM214.24 17.60L206.56 17.60L206.56 16.40L214.24 16.40L214.24 17.60ZM243.04 17.60L235.36 17.60L235.36 16.40L243.04 16.40L243.04 17.60ZM252.64 17.60L244.96 17.60L244.96 16.40L252.64 16.40L252.64 17.60ZM262.24 17.60L254.56 17.60L254.56 16.40L262.24 16.40L262.24 17.60ZM281.44 17.60L273.76 17.60L273.76 16.40L281.44 16.40L281.44 17.60ZM310.24 17.60L302.56 17.60L302.56 16.40L310.24 16.40L310.24 17.60ZM319.84 17.60L312.16 17.60L312.16 16.40L319.84 16.40L319.84 17.60Z"/>
    <path d="M9.52 37.76L8.08 37.76L8.08 22.72L9.52 22.72L9.52 37.76ZM31.84 37.60L24.16 37.60L24.16 36.40L31.84 36.40L31.84 37.60ZM50.80 37.76L49.28 37.76L43.60 22.72L45.12 22.72L50.80 37.76ZM60.64 37.60L52.96 37.60L52.96 36.40L60.64 36.40L60.64 37.60ZM79.84 37.60L72.16 37.60L72.16 36.40L79.84 36.40L79.84 37.60ZM86.32 37.76L84.88 37.76L84.88 22.72L86.32 22.72L86.32 37.76ZM105.52 37.76L104.08 37.76L104.08 22.72L105.52 22.72L105.52 37.76ZM124.72 37.76L123.28 37.76L123.28 22.72L124.72 22.72L124.72 37.76ZM131.52 37.76L130.00 37.76L135.68 22.72L137.20 22.72L131.52 37.76ZM150.72 37.76L149.20 37.76L154.88 22.72L156.40 22.72L150.72 37.76ZM172.72 37.76L171.28 37.76L171.28 22.72L172.72 22.72L172.72 37.76ZM179.52 37.76L178.00 37.76L183.68 22.72L185.20 22.72L179.52 37.76ZM204.64 37.60L196.96 37.60L196.96 36.40L204.64 36.40L204.64 37.60ZM223.60 37.76L222.08 37.76L216.40 22.72L217.92 22.72L223.60 37.76ZM227.52 37.76L226.00 37.76L231.68 22.72L233.20 22.72L227.52 37.76ZM252.64 37.60L244.96 37.60L244.96 36.40L252.64 36.40L252.64 37.60ZM262.24 37.60L254.56 37.60L254.56 36.40L262.24 36.40L262.24 37.60ZM268.72 37.76L267.28 37.76L267.28 22.72L268.72 22.72L268.72 37.76ZM287.92 37.76L286.48 37.76L286.48 22.72L287.92 22.72L287.92 37.76ZM294.72 37.76L293.20 37.76L298.88 22.72L300.40 22.72L294.72 37.76ZM313.92 37.76L312.40 37.76L318.08 22.72L319.60 22.72L313.92 37.76Z"/>
    <path d="M9.52 57.76L8.08 57.76L8.08 42.72L9.52 42.72L9.52 57.76ZM41.44 57.60L33.76 57.60L33.76 56.40L41.44 56.40L41.44 57.60ZM45.12 57.76L43.60 57.76L49.28 42.72L50.80 42.72L45.12 57.76ZM57.52 57.76L56.08 57.76L56.08 42.72L57.52 42.72L57.52 57.76ZM76.72 57.76L75.28 57.76L75.28 42.72L76.72 42.72L76.72 57.76ZM105.52 57.76L104.08 57.76L104.08 42.72L105.52 42.72L105.52 57.76ZM146.64 53.52L146.64 54.96L139.76 51.52L139.76 49.92L146.64 46.48L146.64 47.87L141.68 50.30Q141.38 50.45 141.11 50.55Q140.85 50.66 140.72 50.69L140.72 50.69Q140.86 50.72 141.14 50.82Q141.41 50.93 141.68 51.07L141.68 51.07L146.64 53.52ZM153.52 57.76L152.08 57.76L152.08 42.72L153.52 42.72L153.52 57.76ZM172.72 57.76L171.28 57.76L171.28 42.72L172.72 42.72L172.72 57.76ZM194.16 56.53L194.16 57.92Q191.87 57.41 190.62 55.78Q189.36 54.14 189.36 51.68L189.36 51.68L189.36 48.80Q189.36 46.34 190.62 44.70Q191.87 43.07 194.16 42.56L194.16 42.56L194.16 43.95Q193.14 44.19 192.38 44.86Q191.62 45.54 191.21 46.54Q190.80 47.54 190.80 48.80L190.80 48.80L190.80 51.68Q190.80 52.93 191.21 53.94Q191.62 54.94 192.38 55.62Q193.14 56.29 194.16 56.53L194.16 56.53ZM204.64 57.60L196.96 57.60L196.96 56.40L204.64 56.40L204.64 57.60ZM207.44 57.92L207.44 57.92L207.44 56.53Q208.48 56.29 209.23 55.62Q209.98 54.94 210.39 53.94Q210.80 52.93 210.80 51.68L210.80 51.68L210.80 48.80Q210.80 47.54 210.39 46.54Q209.98 45.54 209.23 44.86Q208.48 44.19 207.44 43.95L207.44 43.95L207.44 42.56Q209.73 43.07 210.98 44.70Q212.24 46.34 212.24 48.80L212.24 48.80L212.24 51.68Q212.24 54.14 210.98 55.78Q209.73 57.41 207.44 57.92ZM233.20 57.76L231.68 57.76L226.00 42.72L227.52 42.72L233.20 57.76ZM243.04 57.60L235.36 57.60L235.36 56.40L243.04 56.40L243.04 57.60ZM252.64 57.60L244.96 57.60L244.96 56.40L252.64 56.40L252.64 57.60ZM271.60 57.76L270.08 57.76L264.40 42.72L265.92 42.72L271.60 57.76ZM309.84 53.52L309.84 54.96L302.96 51.52L302.96 49.92L309.84 46.48L309.84 47.87L304.88 50.30Q304.58 50.45 304.31 50.55Q304.05 50.66 303.92 50.69L303.92 50.69Q304.06 50.72 304.34 50.82Q304.61 50.93 304.88 51.07L304.88 51.07L309.84 53.52Z"/>
    <path d="M9.52 77.76L8.08 77.76L8.08 62.72L9.52 62.72L9.52 77.76ZM22.24 77.60L14.56 77.60L14.56 76.40L22.24 76.40L22.24 77.60ZM28.72 77.76L27.28 77.76L27.28 62.72L28.72 62.72L28.72 77.76ZM47.92 77.76L46.48 77.76L46.48 62.72L47.92 62.72L47.92 77.76ZM60.64 77.60L52.96 77.60L52.96 76.40L60.64 76.40L60.64 77.60ZM70.24 77.60L62.56 77.60L62.56 76.40L70.24 76.40L70.24 77.60ZM79.84 77.60L72.16 77.60L72.16 76.40L79.84 76.40L79.84 77.60ZM86.32 77.76L84.88 77.76L84.88 62.72L86.32 62.72L86.32 77.76ZM105.52 77.76L104.08 77.76L104.08 62.72L105.52 62.72L105.52 77.76ZM118.24 77.60L110.56 77.60L110.56 76.40L118.24 76.40L118.24 77.60ZM124.72 77.76L123.28 77.76L123.28 62.72L124.72 62.72L124.72 77.76ZM137.20 77.76L135.68 77.76L130.00 62.72L131.52 62.72L137.20 77.76ZM147.04 77.60L139.36 77.60L139.36 76.40L147.04 76.40L147.04 77.60ZM156.40 77.76L154.88 77.76L149.20 62.72L150.72 62.72L156.40 77.76ZM166.24 77.60L158.56 77.60L158.56 76.40L166.24 76.40L166.24 77.60ZM172.72 77.76L171.28 77.76L171.28 62.72L172.72 62.72L172.72 77.76ZM185.20 77.76L183.68 77.76L178.00 62.72L179.52 62.72L185.20 77.76ZM195.04 77.60L187.36 77.60L187.36 76.40L195.04 76.40L195.04 77.60ZM204.64 77.60L196.96 77.60L196.96 76.40L204.64 76.40L204.64 77.60ZM214.24 77.60L206.56 77.60L206.56 76.40L214.24 76.40L214.24 77.60ZM217.92 77.76L216.40 77.76L222.08 62.72L223.60 62.72L217.92 77.76ZM230.32 77.76L228.88 77.76L228.88 62.72L230.32 62.72L230.32 77.76ZM243.04 77.60L235.36 77.60L235.36 76.40L243.04 76.40L243.04 77.60ZM252.64 77.60L244.96 77.60L244.96 76.40L252.64 76.40L252.64 77.60ZM262.24 77.60L254.56 77.60L254.56 76.40L262.24 76.40L262.24 77.60ZM265.92 77.76L264.40 77.76L270.08 62.72L271.60 62.72L265.92 77.76ZM281.44 77.60L273.76 77.60L273.76 76.40L281.44 76.40L281.44 77.60ZM287.92 77.76L286.48 77.76L286.48 62.72L287.92 62.72L287.92 77.76ZM300.40 77.76L298.88 77.76L293.20 62.72L294.72 62.72L300.40 77.76ZM310.24 77.60L302.56 77.60L302.56 76.40L310.24 76.40L310.24 77.60ZM319.60 77.76L318.08 77.76L312.40 62.72L313.92 62.72L319.60 77.76Z"/>
  </g>
</svg>